<svg width="40" height="40" viewBox="0 0 40 40" fill="none" xmlns="http://www.w3.org/2000/svg">
<g id="ArrowRight">
<path id="Vector" d="M34.6344 20.8844L23.3844 32.1344C23.1498 32.3689 22.8317 32.5007 22.5 32.5007C22.1683 32.5007 21.8502 32.3689 21.6156 32.1344C21.3811 31.8998 21.2493 31.5817 21.2493 31.25C21.2493 30.9183 21.3811 30.6002 21.6156 30.3656L30.7328 21.25H6.25C5.91848 21.25 5.60054 21.1183 5.36612 20.8839C5.1317 20.6495 5 20.3315 5 20C5 19.6685 5.1317 19.3505 5.36612 19.1161C5.60054 18.8817 5.91848 18.75 6.25 18.75H30.7328L21.6156 9.63438C21.3811 9.39982 21.2493 9.08171 21.2493 8.75C21.2493 8.4183 21.3811 8.10018 21.6156 7.86563C21.8502 7.63107 22.1683 7.49931 22.5 7.49931C22.8317 7.49931 23.1498 7.63107 23.3844 7.86563L34.6344 19.1156C34.7506 19.2317 34.8428 19.3696 34.9057 19.5213C34.9686 19.6731 35.001 19.8357 35.001 20C35.001 20.1643 34.9686 20.3269 34.9057 20.4787C34.8428 20.6304 34.7506 20.7683 34.6344 20.8844Z" fill="#1C1C1C"/>
</g>
</svg>
